<svg width="339" height="339" viewBox="0 0 339 339" fill="none" xmlns="http://www.w3.org/2000/svg">
<circle cx="169.5" cy="169.5" r="169.5" fill="black"/>
<circle cx="169.5" cy="169.5" r="169.5" fill="url(#paint0_linear_10_32)"/>
<g filter="url(#filter0_d_10_32)">
<mask id="path-2-outside-1_10_32" maskUnits="userSpaceOnUse" x="75" y="86" width="190" height="167" fill="black">
<rect fill="white" x="75" y="86" width="190" height="167"/>
<path d="M76.0403 170.311V153.935C83.6653 153.935 88.9508 152.462 91.8968 149.516C94.8428 146.526 96.3159 141.847 96.3159 135.479V125.341C96.3159 115.983 97.7672 108.748 100.67 103.636C103.616 98.4801 107.558 94.7976 112.497 92.5881C117.48 90.3785 123.112 89.0572 129.394 88.6239C135.676 88.1474 142.153 87.9091 148.824 87.9091V113.903C143.626 113.903 139.77 114.488 137.257 115.658C134.744 116.828 133.098 118.604 132.318 120.987C131.538 123.37 131.148 126.381 131.148 130.02V144.317C131.148 147.566 130.412 150.75 128.939 153.87C127.509 156.946 124.845 159.718 120.945 162.188C117.046 164.657 111.479 166.629 104.244 168.102C97.009 169.575 87.6078 170.311 76.0403 170.311ZM148.824 251.153C142.153 251.153 135.676 250.915 129.394 250.439C123.112 250.005 117.48 248.684 112.497 246.474C107.558 244.265 103.616 240.582 100.67 235.427C97.7672 230.315 96.3159 223.08 96.3159 213.722V203.584C96.3159 197.215 94.8428 192.558 91.8968 189.612C88.9508 186.623 83.6653 185.128 76.0403 185.128V168.751C87.6078 168.751 97.009 169.488 104.244 170.961C111.479 172.434 117.046 174.405 120.945 176.875C124.845 179.344 127.509 182.138 128.939 185.258C130.412 188.334 131.148 191.496 131.148 194.746V209.043C131.148 212.638 131.538 215.65 132.318 218.076C133.098 220.458 134.744 222.235 137.257 223.404C139.77 224.574 143.626 225.159 148.824 225.159V251.153ZM76.0403 185.128V153.935H104.634V185.128H76.0403ZM263.943 168.751V185.128C256.362 185.128 251.076 186.623 248.087 189.612C245.141 192.558 243.668 197.215 243.668 203.584V213.722C243.668 223.08 242.195 230.315 239.249 235.427C236.346 240.582 232.404 244.265 227.421 246.474C222.483 248.684 216.872 250.005 210.59 250.439C204.351 250.915 197.875 251.153 191.159 251.153V225.159C196.358 225.159 200.214 224.574 202.727 223.404C205.24 222.235 206.886 220.458 207.666 218.076C208.446 215.65 208.836 212.638 208.836 209.043V194.746C208.836 191.496 209.55 188.334 210.98 185.258C212.453 182.138 215.139 179.344 219.038 176.875C222.937 174.405 228.505 172.434 235.74 170.961C242.975 169.488 252.376 168.751 263.943 168.751ZM191.159 87.9091C197.875 87.9091 204.351 88.1474 210.59 88.6239C216.872 89.0572 222.483 90.3785 227.421 92.5881C232.404 94.7976 236.346 98.4801 239.249 103.636C242.195 108.748 243.668 115.983 243.668 125.341V135.479C243.668 141.847 245.141 146.526 248.087 149.516C251.076 152.462 256.362 153.935 263.943 153.935V170.311C252.376 170.311 242.975 169.575 235.74 168.102C228.505 166.629 222.937 164.657 219.038 162.188C215.139 159.718 212.453 156.946 210.98 153.87C209.55 150.75 208.836 147.566 208.836 144.317V130.02C208.836 126.381 208.446 123.37 207.666 120.987C206.886 118.604 205.24 116.828 202.727 115.658C200.214 114.488 196.358 113.903 191.159 113.903V87.9091ZM263.943 153.935V185.128H235.35V153.935H263.943Z"/>
</mask>
<path d="M76.0403 170.311V153.935C83.6653 153.935 88.9508 152.462 91.8968 149.516C94.8428 146.526 96.3159 141.847 96.3159 135.479V125.341C96.3159 115.983 97.7672 108.748 100.67 103.636C103.616 98.4801 107.558 94.7976 112.497 92.5881C117.48 90.3785 123.112 89.0572 129.394 88.6239C135.676 88.1474 142.153 87.9091 148.824 87.9091V113.903C143.626 113.903 139.77 114.488 137.257 115.658C134.744 116.828 133.098 118.604 132.318 120.987C131.538 123.37 131.148 126.381 131.148 130.02V144.317C131.148 147.566 130.412 150.75 128.939 153.87C127.509 156.946 124.845 159.718 120.945 162.188C117.046 164.657 111.479 166.629 104.244 168.102C97.009 169.575 87.6078 170.311 76.0403 170.311ZM148.824 251.153C142.153 251.153 135.676 250.915 129.394 250.439C123.112 250.005 117.48 248.684 112.497 246.474C107.558 244.265 103.616 240.582 100.67 235.427C97.7672 230.315 96.3159 223.08 96.3159 213.722V203.584C96.3159 197.215 94.8428 192.558 91.8968 189.612C88.9508 186.623 83.6653 185.128 76.0403 185.128V168.751C87.6078 168.751 97.009 169.488 104.244 170.961C111.479 172.434 117.046 174.405 120.945 176.875C124.845 179.344 127.509 182.138 128.939 185.258C130.412 188.334 131.148 191.496 131.148 194.746V209.043C131.148 212.638 131.538 215.65 132.318 218.076C133.098 220.458 134.744 222.235 137.257 223.404C139.77 224.574 143.626 225.159 148.824 225.159V251.153ZM76.0403 185.128V153.935H104.634V185.128H76.0403ZM263.943 168.751V185.128C256.362 185.128 251.076 186.623 248.087 189.612C245.141 192.558 243.668 197.215 243.668 203.584V213.722C243.668 223.08 242.195 230.315 239.249 235.427C236.346 240.582 232.404 244.265 227.421 246.474C222.483 248.684 216.872 250.005 210.59 250.439C204.351 250.915 197.875 251.153 191.159 251.153V225.159C196.358 225.159 200.214 224.574 202.727 223.404C205.24 222.235 206.886 220.458 207.666 218.076C208.446 215.65 208.836 212.638 208.836 209.043V194.746C208.836 191.496 209.55 188.334 210.98 185.258C212.453 182.138 215.139 179.344 219.038 176.875C222.937 174.405 228.505 172.434 235.74 170.961C242.975 169.488 252.376 168.751 263.943 168.751ZM191.159 87.9091C197.875 87.9091 204.351 88.1474 210.59 88.6239C216.872 89.0572 222.483 90.3785 227.421 92.5881C232.404 94.7976 236.346 98.4801 239.249 103.636C242.195 108.748 243.668 115.983 243.668 125.341V135.479C243.668 141.847 245.141 146.526 248.087 149.516C251.076 152.462 256.362 153.935 263.943 153.935V170.311C252.376 170.311 242.975 169.575 235.74 168.102C228.505 166.629 222.937 164.657 219.038 162.188C215.139 159.718 212.453 156.946 210.98 153.87C209.55 150.75 208.836 147.566 208.836 144.317V130.02C208.836 126.381 208.446 123.37 207.666 120.987C206.886 118.604 205.24 116.828 202.727 115.658C200.214 114.488 196.358 113.903 191.159 113.903V87.9091ZM263.943 153.935V185.128H235.35V153.935H263.943Z" fill="white" shape-rendering="crispEdges"/>
<path d="M76.0403 170.311V153.935C83.6653 153.935 88.9508 152.462 91.8968 149.516C94.8428 146.526 96.3159 141.847 96.3159 135.479V125.341C96.3159 115.983 97.7672 108.748 100.67 103.636C103.616 98.4801 107.558 94.7976 112.497 92.5881C117.48 90.3785 123.112 89.0572 129.394 88.6239C135.676 88.1474 142.153 87.9091 148.824 87.9091V113.903C143.626 113.903 139.77 114.488 137.257 115.658C134.744 116.828 133.098 118.604 132.318 120.987C131.538 123.37 131.148 126.381 131.148 130.02V144.317C131.148 147.566 130.412 150.75 128.939 153.87C127.509 156.946 124.845 159.718 120.945 162.188C117.046 164.657 111.479 166.629 104.244 168.102C97.009 169.575 87.6078 170.311 76.0403 170.311ZM148.824 251.153C142.153 251.153 135.676 250.915 129.394 250.439C123.112 250.005 117.48 248.684 112.497 246.474C107.558 244.265 103.616 240.582 100.67 235.427C97.7672 230.315 96.3159 223.08 96.3159 213.722V203.584C96.3159 197.215 94.8428 192.558 91.8968 189.612C88.9508 186.623 83.6653 185.128 76.0403 185.128V168.751C87.6078 168.751 97.009 169.488 104.244 170.961C111.479 172.434 117.046 174.405 120.945 176.875C124.845 179.344 127.509 182.138 128.939 185.258C130.412 188.334 131.148 191.496 131.148 194.746V209.043C131.148 212.638 131.538 215.65 132.318 218.076C133.098 220.458 134.744 222.235 137.257 223.404C139.77 224.574 143.626 225.159 148.824 225.159V251.153ZM76.0403 185.128V153.935H104.634V185.128H76.0403ZM263.943 168.751V185.128C256.362 185.128 251.076 186.623 248.087 189.612C245.141 192.558 243.668 197.215 243.668 203.584V213.722C243.668 223.08 242.195 230.315 239.249 235.427C236.346 240.582 232.404 244.265 227.421 246.474C222.483 248.684 216.872 250.005 210.59 250.439C204.351 250.915 197.875 251.153 191.159 251.153V225.159C196.358 225.159 200.214 224.574 202.727 223.404C205.24 222.235 206.886 220.458 207.666 218.076C208.446 215.65 208.836 212.638 208.836 209.043V194.746C208.836 191.496 209.55 188.334 210.98 185.258C212.453 182.138 215.139 179.344 219.038 176.875C222.937 174.405 228.505 172.434 235.74 170.961C242.975 169.488 252.376 168.751 263.943 168.751ZM191.159 87.9091C197.875 87.9091 204.351 88.1474 210.59 88.6239C216.872 89.0572 222.483 90.3785 227.421 92.5881C232.404 94.7976 236.346 98.4801 239.249 103.636C242.195 108.748 243.668 115.983 243.668 125.341V135.479C243.668 141.847 245.141 146.526 248.087 149.516C251.076 152.462 256.362 153.935 263.943 153.935V170.311C252.376 170.311 242.975 169.575 235.74 168.102C228.505 166.629 222.937 164.657 219.038 162.188C215.139 159.718 212.453 156.946 210.98 153.87C209.55 150.75 208.836 147.566 208.836 144.317V130.02C208.836 126.381 208.446 123.37 207.666 120.987C206.886 118.604 205.24 116.828 202.727 115.658C200.214 114.488 196.358 113.903 191.159 113.903V87.9091ZM263.943 153.935V185.128H235.35V153.935H263.943Z" fill="url(#paint1_linear_10_32)" fill-opacity="0.48" shape-rendering="crispEdges"/>
<path d="M76.0403 170.311H75.0403V171.311H76.0403V170.311ZM76.0403 153.935V152.935H75.0403V153.935H76.0403ZM91.8968 149.516L92.6039 150.223L92.6091 150.218L91.8968 149.516ZM100.67 103.636L99.8017 103.14L99.8003 103.142L100.67 103.636ZM112.497 92.5881L112.092 91.6739L112.089 91.6752L112.497 92.5881ZM129.394 88.6239L129.462 89.6216L129.469 89.6211L129.394 88.6239ZM148.824 87.9091H149.824V86.9091H148.824V87.9091ZM148.824 113.903V114.903H149.824V113.903H148.824ZM137.257 115.658L136.835 114.751L136.835 114.751L137.257 115.658ZM132.318 120.987L133.268 121.298L133.268 121.298L132.318 120.987ZM128.939 153.87L128.034 153.443L128.032 153.448L128.939 153.87ZM120.945 162.188L121.481 163.033L121.481 163.033L120.945 162.188ZM104.244 168.102L104.444 169.081L104.444 169.081L104.244 168.102ZM148.824 251.153V252.153H149.824V251.153H148.824ZM129.394 250.439L129.469 249.441L129.462 249.441L129.394 250.439ZM112.497 246.474L112.089 247.387L112.092 247.389L112.497 246.474ZM100.67 235.427L99.8003 235.921L99.8017 235.923L100.67 235.427ZM91.8968 189.612L91.1846 190.314L91.1897 190.319L91.8968 189.612ZM76.0403 185.128H75.0403V186.128H76.0403V185.128ZM76.0403 168.751V167.751H75.0403V168.751H76.0403ZM104.244 170.961L104.045 171.941L104.045 171.941L104.244 170.961ZM120.945 176.875L120.41 177.719L120.41 177.719L120.945 176.875ZM128.939 185.258L128.03 185.674L128.033 185.682L128.037 185.69L128.939 185.258ZM132.318 218.076L131.366 218.382L131.368 218.387L132.318 218.076ZM137.257 223.404L136.835 224.311L137.257 223.404ZM148.824 225.159H149.824V224.159H148.824V225.159ZM76.0403 185.128H75.0403V186.128H76.0403V185.128ZM76.0403 153.935V152.935H75.0403V153.935H76.0403ZM104.634 153.935H105.634V152.935H104.634V153.935ZM104.634 185.128V186.128H105.634V185.128H104.634ZM77.0403 170.311V153.935H75.0403V170.311H77.0403ZM76.0403 154.935C83.731 154.935 89.3653 153.461 92.6039 150.223L91.1897 148.809C88.5363 151.462 83.5996 152.935 76.0403 152.935V154.935ZM92.6091 150.218C95.8157 146.964 97.3159 141.977 97.3159 135.479H95.3159C95.3159 141.718 93.87 146.089 91.1846 148.814L92.6091 150.218ZM97.3159 135.479V125.341H95.3159V135.479H97.3159ZM97.3159 125.341C97.3159 116.064 98.7586 109.027 101.54 104.129L99.8003 103.142C96.7758 108.469 95.3159 115.902 95.3159 125.341H97.3159ZM101.538 104.132C104.39 99.1415 108.179 95.6153 112.906 93.5009L112.089 91.6752C106.937 93.9799 102.842 97.8187 99.8017 103.14L101.538 104.132ZM112.903 93.5022C117.763 91.3466 123.279 90.048 129.462 89.6216L129.325 87.6263C122.944 88.0663 117.196 89.4105 112.092 91.6739L112.903 93.5022ZM129.469 89.6211C135.725 89.1465 142.176 88.9091 148.824 88.9091V86.9091C142.129 86.9091 135.627 87.1482 129.318 87.6268L129.469 89.6211ZM147.824 87.9091V113.903H149.824V87.9091H147.824ZM148.824 112.903C143.586 112.903 139.55 113.487 136.835 114.751L137.679 116.565C139.989 115.489 143.666 114.903 148.824 114.903V112.903ZM136.835 114.751C134.1 116.024 132.243 118.001 131.368 120.676L133.268 121.298C133.953 119.207 135.388 117.631 137.679 116.565L136.835 114.751ZM131.368 120.676C130.544 123.193 130.148 126.318 130.148 130.02H132.148C132.148 126.443 132.533 123.546 133.268 121.298L131.368 120.676ZM130.148 130.02V144.317H132.148V130.02H130.148ZM130.148 144.317C130.148 147.409 129.448 150.448 128.034 153.443L129.843 154.297C131.375 151.052 132.148 147.723 132.148 144.317H130.148ZM128.032 153.448C126.707 156.298 124.204 158.94 120.41 161.343L121.481 163.033C125.485 160.497 128.311 157.593 129.846 154.291L128.032 153.448ZM120.41 161.343C116.657 163.72 111.223 165.66 104.045 167.122L104.444 169.081C111.735 167.597 117.436 165.594 121.481 163.033L120.41 161.343ZM104.045 167.122C96.9012 168.576 87.5738 169.311 76.0403 169.311V171.311C87.6417 171.311 97.1169 170.573 104.444 169.081L104.045 167.122ZM148.824 250.153C142.176 250.153 135.725 249.916 129.469 249.441L129.318 251.436C135.627 251.914 142.129 252.153 148.824 252.153V250.153ZM129.462 249.441C123.279 249.014 117.763 247.716 112.903 245.56L112.092 247.389C117.196 249.652 122.944 250.996 129.325 251.436L129.462 249.441ZM112.906 245.562C108.179 243.447 104.39 239.921 101.538 234.931L99.8017 235.923C102.842 241.244 106.937 245.083 112.089 247.387L112.906 245.562ZM101.54 234.933C98.7586 230.035 97.3159 222.999 97.3159 213.722H95.3159C95.3159 223.16 96.7758 230.594 99.8003 235.921L101.54 234.933ZM97.3159 213.722V203.584H95.3159V213.722H97.3159ZM97.3159 203.584C97.3159 197.087 95.8163 192.117 92.6039 188.905L91.1897 190.319C93.8693 192.999 95.3159 197.343 95.3159 203.584H97.3159ZM92.6091 188.91C89.3705 185.624 83.7338 184.128 76.0403 184.128V186.128C83.5968 186.128 88.531 187.621 91.1846 190.314L92.6091 188.91ZM77.0403 185.128V168.751H75.0403V185.128H77.0403ZM76.0403 169.751C87.5738 169.751 96.9012 170.486 104.045 171.941L104.444 169.981C97.1169 168.489 87.6417 167.751 76.0403 167.751V169.751ZM104.045 171.941C111.223 173.402 116.657 175.342 120.41 177.719L121.481 176.03C117.436 173.468 111.735 171.466 104.444 169.981L104.045 171.941ZM120.41 177.719C124.201 180.12 126.704 182.782 128.03 185.674L129.848 184.841C128.314 181.495 125.488 178.568 121.481 176.03L120.41 177.719ZM128.037 185.69C129.449 188.638 130.148 191.653 130.148 194.746H132.148C132.148 191.34 131.375 188.03 129.841 184.826L128.037 185.69ZM130.148 194.746V209.043H132.148V194.746H130.148ZM130.148 209.043C130.148 212.703 130.544 215.825 131.366 218.382L133.27 217.77C132.532 215.474 132.148 212.574 132.148 209.043H130.148ZM131.368 218.387C132.243 221.062 134.1 223.038 136.835 224.311L137.679 222.498C135.388 221.431 133.953 219.855 133.268 217.765L131.368 218.387ZM136.835 224.311C139.55 225.575 143.586 226.159 148.824 226.159V224.159C143.666 224.159 139.989 223.573 137.679 222.498L136.835 224.311ZM147.824 225.159V251.153H149.824V225.159H147.824ZM77.0403 185.128V153.935H75.0403V185.128H77.0403ZM76.0403 154.935H104.634V152.935H76.0403V154.935ZM103.634 153.935V185.128H105.634V153.935H103.634ZM104.634 184.128H76.0403V186.128H104.634V184.128ZM263.943 168.751H264.943V167.751H263.943V168.751ZM263.943 185.128V186.128H264.943V185.128H263.943ZM248.087 189.612L248.794 190.319L248.794 190.319L248.087 189.612ZM239.249 235.427L238.382 234.928L238.377 234.936L239.249 235.427ZM227.421 246.474L227.016 245.56L227.013 245.562L227.421 246.474ZM210.59 250.439L210.521 249.441L210.514 249.441L210.59 250.439ZM191.159 251.153H190.159V252.153H191.159V251.153ZM191.159 225.159V224.159H190.159V225.159H191.159ZM202.727 223.404L202.305 222.498L202.305 222.498L202.727 223.404ZM207.666 218.076L208.616 218.387L208.618 218.382L207.666 218.076ZM210.98 185.258L210.076 184.831L210.073 184.836L210.98 185.258ZM219.038 176.875L218.503 176.03L218.503 176.03L219.038 176.875ZM235.74 170.961L235.939 171.941L235.939 171.941L235.74 170.961ZM191.159 87.9091V86.9091H190.159V87.9091H191.159ZM210.59 88.6239L210.514 89.6211L210.521 89.6216L210.59 88.6239ZM227.421 92.5881L227.013 93.5009L227.016 93.5022L227.421 92.5881ZM239.249 103.636L238.377 104.126L238.382 104.135L239.249 103.636ZM248.087 149.516L247.375 150.218L247.38 150.223L247.385 150.228L248.087 149.516ZM263.943 153.935H264.943V152.935H263.943V153.935ZM263.943 170.311V171.311H264.943V170.311H263.943ZM235.74 168.102L235.54 169.081L235.54 169.081L235.74 168.102ZM219.038 162.188L218.503 163.033L218.503 163.033L219.038 162.188ZM210.98 153.87L210.071 154.286L210.074 154.294L210.078 154.302L210.98 153.87ZM202.727 115.658L203.149 114.751L203.149 114.751L202.727 115.658ZM191.159 113.903H190.159V114.903H191.159V113.903ZM263.943 153.935H264.943V152.935H263.943V153.935ZM263.943 185.128V186.128H264.943V185.128H263.943ZM235.35 185.128H234.35V186.128H235.35V185.128ZM235.35 153.935V152.935H234.35V153.935H235.35ZM262.943 168.751V185.128H264.943V168.751H262.943ZM263.943 184.128C256.289 184.128 250.659 185.626 247.38 188.905L248.794 190.319C251.493 187.62 256.435 186.128 263.943 186.128V184.128ZM247.38 188.905C244.167 192.117 242.668 197.087 242.668 203.584H244.668C244.668 197.343 246.114 192.999 248.794 190.319L247.38 188.905ZM242.668 203.584V213.722H244.668V203.584H242.668ZM242.668 213.722C242.668 222.997 241.204 230.031 238.382 234.928L240.115 235.926C243.186 230.598 244.668 223.162 244.668 213.722H242.668ZM238.377 234.936C235.571 239.921 231.784 243.446 227.016 245.56L227.827 247.389C233.023 245.084 237.121 241.244 240.12 235.917L238.377 234.936ZM227.013 245.562C222.197 247.716 216.705 249.014 210.521 249.441L210.659 251.436C217.039 250.996 222.768 249.652 227.83 247.387L227.013 245.562ZM210.514 249.441C204.302 249.916 197.851 250.153 191.159 250.153V252.153C197.898 252.153 204.401 251.914 210.666 251.436L210.514 249.441ZM192.159 251.153V225.159H190.159V251.153H192.159ZM191.159 226.159C196.398 226.159 200.433 225.575 203.149 224.311L202.305 222.498C199.995 223.573 196.318 224.159 191.159 224.159V226.159ZM203.149 224.311C205.883 223.038 207.741 221.062 208.616 218.387L206.715 217.765C206.031 219.855 204.596 221.431 202.305 222.498L203.149 224.311ZM208.618 218.382C209.44 215.825 209.836 212.703 209.836 209.043H207.836C207.836 212.574 207.452 215.474 206.714 217.77L208.618 218.382ZM209.836 209.043V194.746H207.836V209.043H209.836ZM209.836 194.746C209.836 191.648 210.516 188.629 211.887 185.679L210.073 184.836C208.585 188.038 207.836 191.344 207.836 194.746H209.836ZM211.884 185.685C213.253 182.786 215.782 180.121 219.573 177.719L218.503 176.03C214.497 178.567 211.653 181.491 210.076 184.831L211.884 185.685ZM219.573 177.719C223.327 175.342 228.76 173.402 235.939 171.941L235.54 169.981C228.249 171.466 222.548 173.468 218.503 176.03L219.573 177.719ZM235.939 171.941C243.083 170.486 252.41 169.751 263.943 169.751V167.751C252.342 167.751 242.867 168.489 235.54 169.981L235.939 171.941ZM191.159 88.9091C197.851 88.9091 204.302 89.1465 210.514 89.621L210.666 87.6268C204.401 87.1482 197.898 86.9091 191.159 86.9091V88.9091ZM210.521 89.6216C216.705 90.048 222.197 91.3465 227.013 93.5009L227.83 91.6752C222.768 89.4106 217.039 88.0663 210.659 87.6263L210.521 89.6216ZM227.016 93.5022C231.784 95.6168 235.571 99.1414 238.377 104.126L240.12 103.145C237.121 97.8188 233.023 93.9783 227.827 91.6739L227.016 93.5022ZM238.382 104.135C241.204 109.031 242.668 116.065 242.668 125.341H244.668C244.668 115.901 243.186 108.465 240.115 103.136L238.382 104.135ZM242.668 125.341V135.479H244.668V125.341H242.668ZM242.668 135.479C242.668 141.977 244.168 146.964 247.375 150.218L248.799 148.814C246.114 146.089 244.668 141.718 244.668 135.479H242.668ZM247.385 150.228C250.664 153.46 256.292 154.935 263.943 154.935V152.935C256.432 152.935 251.488 151.464 248.789 148.803L247.385 150.228ZM262.943 153.935V170.311H264.943V153.935H262.943ZM263.943 169.311C252.41 169.311 243.083 168.576 235.939 167.122L235.54 169.081C242.867 170.573 252.342 171.311 263.943 171.311V169.311ZM235.939 167.122C228.76 165.66 223.327 163.72 219.573 161.343L218.503 163.033C222.548 165.594 228.249 167.597 235.54 169.081L235.939 167.122ZM219.573 161.343C215.779 158.94 213.25 156.295 211.882 153.438L210.078 154.302C211.656 157.597 214.5 160.497 218.503 163.033L219.573 161.343ZM211.889 153.453C210.516 150.457 209.836 147.414 209.836 144.317H207.836C207.836 147.718 208.585 151.044 210.071 154.286L211.889 153.453ZM209.836 144.317V130.02H207.836V144.317H209.836ZM209.836 130.02C209.836 126.318 209.44 123.193 208.616 120.676L206.715 121.298C207.451 123.546 207.836 126.443 207.836 130.02H209.836ZM208.616 120.676C207.741 118.001 205.883 116.024 203.149 114.751L202.305 116.565C204.596 117.631 206.031 119.207 206.715 121.298L208.616 120.676ZM203.149 114.751C200.433 113.487 196.398 112.903 191.159 112.903V114.903C196.318 114.903 199.995 115.489 202.305 116.565L203.149 114.751ZM192.159 113.903V87.9091H190.159V113.903H192.159ZM262.943 153.935V185.128H264.943V153.935H262.943ZM263.943 184.128H235.35V186.128H263.943V184.128ZM236.35 185.128V153.935H234.35V185.128H236.35ZM235.35 154.935H263.943V152.935H235.35V154.935Z" fill="black" fill-opacity="0.18" mask="url(#path-2-outside-1_10_32)"/>
</g>
<defs>
<filter id="filter0_d_10_32" x="74.0403" y="85.9091" width="207.903" height="183.244" filterUnits="userSpaceOnUse" color-interpolation-filters="sRGB">
<feFlood flood-opacity="0" result="BackgroundImageFix"/>
<feColorMatrix in="SourceAlpha" type="matrix" values="0 0 0 0 0 0 0 0 0 0 0 0 0 0 0 0 0 0 127 0" result="hardAlpha"/>
<feOffset dx="8" dy="8"/>
<feGaussianBlur stdDeviation="5"/>
<feComposite in2="hardAlpha" operator="out"/>
<feColorMatrix type="matrix" values="0 0 0 0 0 0 0 0 0 0 0 0 0 0 0 0 0 0 0.1 0"/>
<feBlend mode="normal" in2="BackgroundImageFix" result="effect1_dropShadow_10_32"/>
<feBlend mode="normal" in="SourceGraphic" in2="effect1_dropShadow_10_32" result="shape"/>
</filter>
<linearGradient id="paint0_linear_10_32" x1="343.7" y1="-84.1578" x2="121.3" y2="319.158" gradientUnits="userSpaceOnUse">
<stop offset="0.22" stop-color="#8145FF" stop-opacity="0.96"/>
<stop offset="0.58" stop-color="#8148CA" stop-opacity="0.83"/>
<stop offset="0.935" stop-color="#45FFDE"/>
</linearGradient>
<linearGradient id="paint1_linear_10_32" x1="107.201" y1="249.065" x2="206.985" y2="95.4103" gradientUnits="userSpaceOnUse">
<stop stop-color="#45FFDE" stop-opacity="0.6"/>
<stop offset="0.51" stop-color="#64A2D4" stop-opacity="0"/>
<stop offset="1" stop-color="#8148CA"/>
</linearGradient>
</defs>
</svg>
